<mxfile host="app.diagrams.net" agent="Mozilla/5.0 (Windows NT 10.0; Win64; x64) AppleWebKit/537.36 (KHTML, like Gecko) Chrome/136.0.0.0 Safari/537.36 Edg/136.0.0.0" version="27.1.3">
  <diagram name="PÃ¡gina-1" id="15ie23Sme_O3r6-o-PfK">
    <mxGraphModel dx="1371" dy="788" grid="0" gridSize="10" guides="1" tooltips="1" connect="1" arrows="1" fold="1" page="1" pageScale="1" pageWidth="827" pageHeight="1169" math="0" shadow="0">
      <root>
        <mxCell id="0" />
        <mxCell id="1" parent="0" />
        <mxCell id="3ld0-ShRANPhi6wB7w6u-13" value="" style="rounded=0;whiteSpace=wrap;html=1;fillColor=none;" vertex="1" parent="1">
          <mxGeometry x="186" y="115" width="362" height="256" as="geometry" />
        </mxCell>
        <mxCell id="3ld0-ShRANPhi6wB7w6u-7" style="rounded=0;orthogonalLoop=1;jettySize=auto;html=1;entryX=0;entryY=0.25;entryDx=0;entryDy=0;exitX=1;exitY=0.25;exitDx=0;exitDy=0;" edge="1" parent="1" source="3ld0-ShRANPhi6wB7w6u-3" target="3ld0-ShRANPhi6wB7w6u-4">
          <mxGeometry relative="1" as="geometry">
            <mxPoint x="312" y="195" as="sourcePoint" />
          </mxGeometry>
        </mxCell>
        <mxCell id="3ld0-ShRANPhi6wB7w6u-3" value="API" style="rounded=0;whiteSpace=wrap;html=1;" vertex="1" parent="1">
          <mxGeometry x="206" y="138.5" width="81" height="221" as="geometry" />
        </mxCell>
        <mxCell id="3ld0-ShRANPhi6wB7w6u-6" value="" style="rounded=0;orthogonalLoop=1;jettySize=auto;html=1;" edge="1" parent="1" source="3ld0-ShRANPhi6wB7w6u-4" target="3ld0-ShRANPhi6wB7w6u-16">
          <mxGeometry relative="1" as="geometry" />
        </mxCell>
        <mxCell id="3ld0-ShRANPhi6wB7w6u-4" value="&lt;div&gt;Orquestrador&lt;/div&gt;" style="whiteSpace=wrap;html=1;aspect=fixed;" vertex="1" parent="1">
          <mxGeometry x="382" y="172" width="87" height="87" as="geometry" />
        </mxCell>
        <mxCell id="3ld0-ShRANPhi6wB7w6u-5" value="Site Embrapa" style="rounded=1;whiteSpace=wrap;html=1;" vertex="1" parent="1">
          <mxGeometry x="365.5" y="387" width="120" height="60" as="geometry" />
        </mxCell>
        <mxCell id="3ld0-ShRANPhi6wB7w6u-8" style="rounded=0;orthogonalLoop=1;jettySize=auto;html=1;exitX=0;exitY=0.75;exitDx=0;exitDy=0;entryX=1;entryY=0.452;entryDx=0;entryDy=0;entryPerimeter=0;" edge="1" parent="1" source="3ld0-ShRANPhi6wB7w6u-4" target="3ld0-ShRANPhi6wB7w6u-3">
          <mxGeometry relative="1" as="geometry">
            <mxPoint x="313" y="240" as="targetPoint" />
          </mxGeometry>
        </mxCell>
        <mxCell id="3ld0-ShRANPhi6wB7w6u-18" value="" style="edgeStyle=orthogonalEdgeStyle;rounded=0;orthogonalLoop=1;jettySize=auto;html=1;" edge="1" parent="1" source="3ld0-ShRANPhi6wB7w6u-9" target="3ld0-ShRANPhi6wB7w6u-10">
          <mxGeometry relative="1" as="geometry" />
        </mxCell>
        <mxCell id="3ld0-ShRANPhi6wB7w6u-9" value="User" style="shape=umlActor;verticalLabelPosition=bottom;verticalAlign=top;html=1;outlineConnect=0;" vertex="1" parent="1">
          <mxGeometry x="62" y="214" width="30" height="60" as="geometry" />
        </mxCell>
        <mxCell id="3ld0-ShRANPhi6wB7w6u-10" value="Portal" style="rounded=0;whiteSpace=wrap;html=1;" vertex="1" parent="1">
          <mxGeometry x="130" y="115" width="50" height="257" as="geometry" />
        </mxCell>
        <mxCell id="3ld0-ShRANPhi6wB7w6u-14" value="Render" style="text;html=1;align=center;verticalAlign=middle;whiteSpace=wrap;rounded=0;" vertex="1" parent="1">
          <mxGeometry x="485.5" y="120" width="60" height="30" as="geometry" />
        </mxCell>
        <mxCell id="3ld0-ShRANPhi6wB7w6u-17" value="" style="rounded=0;orthogonalLoop=1;jettySize=auto;html=1;" edge="1" parent="1" source="3ld0-ShRANPhi6wB7w6u-16" target="3ld0-ShRANPhi6wB7w6u-5">
          <mxGeometry relative="1" as="geometry" />
        </mxCell>
        <mxCell id="3ld0-ShRANPhi6wB7w6u-16" value="Web Scrapping" style="rounded=0;whiteSpace=wrap;html=1;" vertex="1" parent="1">
          <mxGeometry x="365.5" y="290" width="120" height="60" as="geometry" />
        </mxCell>
      </root>
    </mxGraphModel>
  </diagram>
</mxfile>
